<?xml version="1.0" encoding="UTF-8" standalone="no"?>
<!DOCTYPE svg PUBLIC "-//W3C//DTD SVG 1.1//EN" "http://www.w3.org/Graphics/SVG/1.1/DTD/svg11.dtd">
<svg width="100%" height="100%" viewBox="0 0 203 177" version="1.1" xmlns="http://www.w3.org/2000/svg" xmlns:xlink="http://www.w3.org/1999/xlink" xml:space="preserve" xmlns:serif="http://www.serif.com/" style="fill-rule:evenodd;clip-rule:evenodd;stroke-linejoin:round;stroke-miterlimit:2;">
    <g transform="matrix(0.206495,0,0,0.171835,-230.927,89.2277)">
        <g transform="matrix(506.561,0,0,506.561,1266.31,137.292)">
            <path d="M0.503,-0.192L0.503,-0.213C0.503,-0.307 0.452,-0.361 0.373,-0.378C0.443,-0.398 0.485,-0.446 0.485,-0.526L0.485,-0.538C0.485,-0.655 0.405,-0.725 0.271,-0.725C0.133,-0.725 0.053,-0.642 0.049,-0.519L0.171,-0.519C0.177,-0.585 0.211,-0.62 0.269,-0.62C0.327,-0.62 0.355,-0.588 0.355,-0.53L0.355,-0.518C0.355,-0.452 0.325,-0.419 0.254,-0.419L0.215,-0.419L0.215,-0.324L0.255,-0.324C0.332,-0.324 0.363,-0.291 0.363,-0.215L0.363,-0.196C0.363,-0.129 0.332,-0.094 0.263,-0.094C0.192,-0.094 0.16,-0.136 0.156,-0.206L0.032,-0.206C0.035,-0.068 0.114,0.01 0.268,0.01C0.419,0.01 0.503,-0.068 0.503,-0.192Z" style="fill:rgb(17,23,41);fill-rule:nonzero;"/>
        </g>
        <g transform="matrix(506.561,0,0,506.561,1526.68,137.292)">
            <path d="M0.291,0.01C0.435,0.01 0.523,-0.069 0.523,-0.206L0.523,-0.255C0.523,-0.385 0.439,-0.458 0.33,-0.458C0.254,-0.458 0.207,-0.426 0.179,-0.377L0.179,-0.434C0.181,-0.558 0.226,-0.619 0.297,-0.619C0.351,-0.619 0.375,-0.591 0.383,-0.541L0.512,-0.541C0.499,-0.666 0.42,-0.725 0.296,-0.725C0.149,-0.725 0.043,-0.619 0.043,-0.42L0.043,-0.264C0.043,-0.099 0.118,0.01 0.291,0.01ZM0.29,-0.092C0.226,-0.092 0.185,-0.131 0.185,-0.215L0.185,-0.251C0.185,-0.323 0.226,-0.364 0.288,-0.364C0.353,-0.364 0.389,-0.322 0.389,-0.253L0.389,-0.204C0.389,-0.135 0.351,-0.092 0.29,-0.092Z" style="fill:rgb(17,23,41);fill-rule:nonzero;"/>
        </g>
        <g transform="matrix(506.561,0,0,506.561,1791.11,137.292)">
            <path d="M0.302,0.01C0.461,0.01 0.56,-0.095 0.56,-0.28L0.56,-0.44C0.56,-0.625 0.455,-0.725 0.301,-0.725C0.148,-0.725 0.043,-0.623 0.043,-0.438L0.043,-0.276C0.043,-0.093 0.144,0.01 0.302,0.01ZM0.303,-0.099C0.223,-0.099 0.18,-0.154 0.18,-0.278L0.18,-0.439C0.18,-0.56 0.222,-0.618 0.302,-0.618C0.382,-0.618 0.423,-0.556 0.423,-0.44L0.423,-0.279C0.423,-0.156 0.385,-0.099 0.303,-0.099Z" style="fill:rgb(17,23,41);fill-rule:nonzero;"/>
        </g>
    </g>
    <g transform="matrix(0.129022,0,1.19286e-34,0.129022,32.9475,38.8866)">
        <path d="M363.381,1067.65C389.877,1067.65 407.589,1051.81 407.589,1022.14L407.589,1016.24L368.133,1016.24L368.133,1023.01L399.813,1023.01L399.813,1023.58C399.525,1046.19 387.429,1061.02 363.381,1061.02C336.885,1061.02 322.197,1042.88 322.197,1015.52L322.197,1014.37C322.197,987.584 338.469,968.72 363.237,968.72C379.653,968.72 392.613,975.92 396.357,992.912L404.421,992.912C400.533,971.456 382.821,962.24 363.093,962.24C334.869,962.24 313.989,984.416 313.989,1014.51L313.989,1015.66C313.989,1045.9 332.421,1067.65 363.381,1067.65Z" style="fill:url(#_Linear1);fill-rule:nonzero;"/>
        <path d="M428.469,1066.5L436.533,1066.5L436.533,1019.55L456.549,1019.55L488.805,1066.5L497.733,1066.5L465.045,1018.98C480.453,1016.82 491.685,1008.9 491.685,991.76L491.685,991.184C491.685,971.312 476.709,963.536 456.693,963.536L428.469,963.536L428.469,1066.5ZM436.533,1013.07L436.533,970.16L457.125,970.16C473.109,970.16 483.621,975.344 483.621,991.184L483.621,991.76C483.621,1006.74 473.685,1013.07 457.125,1013.07L436.533,1013.07Z" style="fill:url(#_Linear2);fill-rule:nonzero;"/>
        <path d="M558.789,1067.65C587.589,1067.65 608.613,1044.46 608.613,1015.38L608.613,1014.22C608.613,985.28 587.589,962.384 558.501,962.384C529.557,962.384 508.389,985.28 508.389,1014.51L508.389,1015.66C508.389,1044.46 529.413,1067.65 558.789,1067.65ZM558.789,1060.88C534.885,1060.88 516.597,1041.73 516.597,1015.52L516.597,1014.37C516.597,988.448 533.301,969.008 558.501,969.008C583.701,969.008 600.261,989.024 600.261,1014.08L600.261,1015.23C600.261,1041.58 583.413,1060.88 558.789,1060.88Z" style="fill:url(#_Linear3);fill-rule:nonzero;"/>
        <path d="M664.773,1067.5C690.405,1067.5 702.645,1052.67 702.645,1028.05L702.645,963.536L694.581,963.536L694.581,1026.9C694.581,1051.23 684.645,1060.74 664.917,1060.74C645.765,1060.74 635.829,1050.8 635.829,1028.77L635.829,963.536L627.909,963.536L627.909,1029.63C627.909,1054.26 641.589,1067.5 664.773,1067.5Z" style="fill:url(#_Linear4);fill-rule:nonzero;"/>
        <path d="M727.557,1066.5L735.621,1066.5L735.621,1022.43L754.917,1022.43C774.933,1022.43 789.909,1014.22 789.909,993.056L789.909,992.48C789.909,971.6 774.789,963.536 754.773,963.536L727.557,963.536L727.557,1066.5ZM735.621,1015.95L735.621,970.16L755.205,970.16C771.333,970.16 781.845,975.776 781.845,992.48L781.845,993.056C781.845,1008.9 772.053,1015.95 755.493,1015.95L735.621,1015.95Z" style="fill:url(#_Linear5);fill-rule:nonzero;"/>
    </g>
    <g transform="matrix(0.264707,0,2.47827e-34,0.268055,-66.66,-132.597)">
        <path d="M349.485,1068.21C372.509,1068.21 385.396,1057.73 385.396,1039.52C385.396,1020.45 372.853,1015.29 351.719,1012.03C337.457,1009.62 333.162,1007.05 333.162,1000.51C333.162,994.158 338.488,989.862 347.423,989.862C357.045,989.862 361.685,993.642 363.403,1001.89L382.647,1001.89C380.413,981.615 365.808,974.742 347.423,974.742C330.584,974.742 313.746,983.677 313.746,1001.72C313.746,1018.56 322.509,1025.26 346.22,1029.04C359.451,1031.27 365.465,1034.02 365.465,1041.41C365.465,1048.97 360.482,1052.92 349.313,1052.92C337.114,1052.92 332.474,1047.6 331.443,1038.49L311.855,1038.49C312.715,1057.56 326.289,1068.21 349.485,1068.21Z" style="fill:url(#_Linear6);fill-rule:nonzero;"/>
        <path d="M434.71,1068.21C457.734,1068.21 473.027,1057.9 475.948,1039L455.844,1039C454.298,1047.77 447.768,1052.75 435.225,1052.75C419.761,1052.75 411.17,1043.13 410.483,1026.12L476.291,1026.12L476.291,1020.1C476.291,987.972 456.188,974.742 433.851,974.742C408.249,974.742 389.176,993.299 389.176,1021.13L389.176,1022.51C389.176,1050.86 408.249,1068.21 434.71,1068.21ZM410.826,1012.2C412.888,998.282 421.308,989.862 433.851,989.862C446.738,989.862 454.641,996.735 455.672,1012.2L410.826,1012.2Z" style="fill:url(#_Linear7);fill-rule:nonzero;"/>
        <path d="M525.605,1068.21C550.004,1068.21 565.64,1053.61 567.186,1032.99L548.114,1032.99C546.911,1045.7 537.461,1052.24 526.464,1052.24C511.172,1052.24 501.55,1041.92 501.55,1022.34L501.55,1020.96C501.55,1002.4 511.687,991.409 525.949,991.409C536.945,991.409 544.849,996.392 546.567,1008.42L566.671,1008.42C564.265,983.677 545.537,974.742 525.605,974.742C500.519,974.742 480.243,992.783 480.243,1021.31L480.243,1022.68C480.243,1051.38 499.831,1068.21 525.605,1068.21Z" style="fill:url(#_Linear8);fill-rule:nonzero;"/>
        <path d="M606.534,1068.21C621.139,1068.21 630.59,1061.17 635.057,1052.41L635.057,1066.5L655.848,1066.5L655.848,976.632L635.057,976.632L635.057,1030.07C635.057,1044.33 625.263,1051.55 614.094,1051.55C602.067,1051.55 596.397,1045.36 596.397,1031.79L596.397,976.632L575.606,976.632L575.606,1034.19C575.606,1058.08 588.836,1068.21 606.534,1068.21Z" style="fill:url(#_Linear9);fill-rule:nonzero;"/>
        <path d="M671.827,1066.5L692.618,1066.5L692.618,1019.76C692.618,1000.69 703.615,994.845 721.828,994.673L721.828,975.257C706.708,975.429 698.288,982.13 692.618,993.471L692.618,976.632L671.827,976.632L671.827,1066.5Z" style="fill:url(#_Linear10);fill-rule:nonzero;"/>
        <path d="M742.104,961.855C748.977,961.855 754.475,956.7 754.475,949.999C754.475,943.126 748.977,937.971 742.104,937.971C735.231,937.971 729.732,943.126 729.732,949.999C729.732,956.7 735.231,961.855 742.104,961.855ZM731.966,1066.5L752.757,1066.5L752.757,976.632L731.966,976.632L731.966,1066.5Z" style="fill:url(#_Linear11);fill-rule:nonzero;"/>
        <path d="M800.008,1068.04C806.366,1068.04 810.833,1067.01 814.098,1065.81L814.098,1049.31C811.177,1050.52 808.084,1051.03 803.96,1051.03C797.431,1051.03 793.651,1047.42 793.651,1039.52L793.651,992.268L813.411,992.268L813.411,976.632L793.651,976.632L793.651,956.872L772.86,956.872L772.86,976.632L760.832,976.632L760.832,992.268L772.86,992.268L772.86,1041.41C772.86,1058.42 782.139,1068.04 800.008,1068.04Z" style="fill:url(#_Linear12);fill-rule:nonzero;"/>
        <path d="M834.201,1097.25L854.648,1097.25L903.618,976.632L883.343,976.632L861.35,1034.54L837.466,976.632L814.957,976.632L850.525,1057.39L834.201,1097.25Z" style="fill:url(#_Linear13);fill-rule:nonzero;"/>
    </g>
    <g transform="matrix(0.526481,0,0,0.526481,-10.3549,-11.1527)">
        <path d="M403.764,221.568C402.517,242.903 397.673,263.302 389.82,282.184L358.509,282.184C363.933,271.378 368.169,259.896 371.049,247.9C386.972,244.515 398.389,235.465 403.764,221.568ZM331.21,100.082C301.202,68.43 258.466,48.629 211.072,48.629C120.348,48.629 46.692,121.185 46.692,210.553C46.692,219.981 47.512,229.222 49.087,238.221L21.714,238.221C20.366,229.172 19.668,219.926 19.668,210.521C19.668,106.023 105.794,21.184 211.878,21.184C277.267,21.184 335.075,53.418 369.805,102.626C362.34,100.264 353.973,99.062 344.897,99.062C340.131,99.062 335.56,99.404 331.21,100.082Z" style="fill:url(#_Linear14);"/>
    </g>
    <defs>
        <linearGradient id="_Linear1" x1="0" y1="0" x2="1" y2="0" gradientUnits="userSpaceOnUse" gradientTransform="matrix(591.763,0,0,159.281,311.855,1017.61)"><stop offset="0" style="stop-color:rgb(47,42,153);stop-opacity:1"/><stop offset="0.45" style="stop-color:rgb(27,100,234);stop-opacity:1"/><stop offset="1" style="stop-color:rgb(22,115,255);stop-opacity:1"/></linearGradient>
        <linearGradient id="_Linear2" x1="0" y1="0" x2="1" y2="0" gradientUnits="userSpaceOnUse" gradientTransform="matrix(591.763,0,0,159.281,311.855,1017.61)"><stop offset="0" style="stop-color:rgb(47,42,153);stop-opacity:1"/><stop offset="0.45" style="stop-color:rgb(27,100,234);stop-opacity:1"/><stop offset="1" style="stop-color:rgb(22,115,255);stop-opacity:1"/></linearGradient>
        <linearGradient id="_Linear3" x1="0" y1="0" x2="1" y2="0" gradientUnits="userSpaceOnUse" gradientTransform="matrix(591.763,0,0,159.281,311.855,1017.61)"><stop offset="0" style="stop-color:rgb(47,42,153);stop-opacity:1"/><stop offset="0.45" style="stop-color:rgb(27,100,234);stop-opacity:1"/><stop offset="1" style="stop-color:rgb(22,115,255);stop-opacity:1"/></linearGradient>
        <linearGradient id="_Linear4" x1="0" y1="0" x2="1" y2="0" gradientUnits="userSpaceOnUse" gradientTransform="matrix(591.763,0,0,159.281,311.855,1017.61)"><stop offset="0" style="stop-color:rgb(47,42,153);stop-opacity:1"/><stop offset="0.45" style="stop-color:rgb(27,100,234);stop-opacity:1"/><stop offset="1" style="stop-color:rgb(22,115,255);stop-opacity:1"/></linearGradient>
        <linearGradient id="_Linear5" x1="0" y1="0" x2="1" y2="0" gradientUnits="userSpaceOnUse" gradientTransform="matrix(591.763,0,0,159.281,311.855,1017.61)"><stop offset="0" style="stop-color:rgb(47,42,153);stop-opacity:1"/><stop offset="0.45" style="stop-color:rgb(27,100,234);stop-opacity:1"/><stop offset="1" style="stop-color:rgb(22,115,255);stop-opacity:1"/></linearGradient>
        <linearGradient id="_Linear6" x1="0" y1="0" x2="1" y2="0" gradientUnits="userSpaceOnUse" gradientTransform="matrix(591.763,0,0,159.281,311.855,1017.61)"><stop offset="0" style="stop-color:rgb(47,42,153);stop-opacity:1"/><stop offset="0.2" style="stop-color:rgb(37,71,194);stop-opacity:1"/><stop offset="0.41" style="stop-color:rgb(27,101,236);stop-opacity:1"/><stop offset="1" style="stop-color:rgb(22,115,255);stop-opacity:1"/></linearGradient>
        <linearGradient id="_Linear7" x1="0" y1="0" x2="1" y2="0" gradientUnits="userSpaceOnUse" gradientTransform="matrix(591.763,0,0,159.281,311.855,1017.61)"><stop offset="0" style="stop-color:rgb(47,42,153);stop-opacity:1"/><stop offset="0.2" style="stop-color:rgb(37,71,194);stop-opacity:1"/><stop offset="0.41" style="stop-color:rgb(27,101,236);stop-opacity:1"/><stop offset="1" style="stop-color:rgb(22,115,255);stop-opacity:1"/></linearGradient>
        <linearGradient id="_Linear8" x1="0" y1="0" x2="1" y2="0" gradientUnits="userSpaceOnUse" gradientTransform="matrix(591.763,0,0,159.281,311.855,1017.61)"><stop offset="0" style="stop-color:rgb(47,42,153);stop-opacity:1"/><stop offset="0.2" style="stop-color:rgb(37,71,194);stop-opacity:1"/><stop offset="0.41" style="stop-color:rgb(27,101,236);stop-opacity:1"/><stop offset="1" style="stop-color:rgb(22,115,255);stop-opacity:1"/></linearGradient>
        <linearGradient id="_Linear9" x1="0" y1="0" x2="1" y2="0" gradientUnits="userSpaceOnUse" gradientTransform="matrix(591.763,0,0,159.281,311.855,1017.61)"><stop offset="0" style="stop-color:rgb(47,42,153);stop-opacity:1"/><stop offset="0.2" style="stop-color:rgb(37,71,194);stop-opacity:1"/><stop offset="0.41" style="stop-color:rgb(27,101,236);stop-opacity:1"/><stop offset="1" style="stop-color:rgb(22,115,255);stop-opacity:1"/></linearGradient>
        <linearGradient id="_Linear10" x1="0" y1="0" x2="1" y2="0" gradientUnits="userSpaceOnUse" gradientTransform="matrix(591.763,0,0,159.281,311.855,1017.61)"><stop offset="0" style="stop-color:rgb(47,42,153);stop-opacity:1"/><stop offset="0.2" style="stop-color:rgb(37,71,194);stop-opacity:1"/><stop offset="0.41" style="stop-color:rgb(27,101,236);stop-opacity:1"/><stop offset="1" style="stop-color:rgb(22,115,255);stop-opacity:1"/></linearGradient>
        <linearGradient id="_Linear11" x1="0" y1="0" x2="1" y2="0" gradientUnits="userSpaceOnUse" gradientTransform="matrix(591.763,0,0,159.281,311.855,1017.61)"><stop offset="0" style="stop-color:rgb(47,42,153);stop-opacity:1"/><stop offset="0.2" style="stop-color:rgb(37,71,194);stop-opacity:1"/><stop offset="0.41" style="stop-color:rgb(27,101,236);stop-opacity:1"/><stop offset="1" style="stop-color:rgb(22,115,255);stop-opacity:1"/></linearGradient>
        <linearGradient id="_Linear12" x1="0" y1="0" x2="1" y2="0" gradientUnits="userSpaceOnUse" gradientTransform="matrix(591.763,0,0,159.281,311.855,1017.61)"><stop offset="0" style="stop-color:rgb(47,42,153);stop-opacity:1"/><stop offset="0.2" style="stop-color:rgb(37,71,194);stop-opacity:1"/><stop offset="0.41" style="stop-color:rgb(27,101,236);stop-opacity:1"/><stop offset="1" style="stop-color:rgb(22,115,255);stop-opacity:1"/></linearGradient>
        <linearGradient id="_Linear13" x1="0" y1="0" x2="1" y2="0" gradientUnits="userSpaceOnUse" gradientTransform="matrix(591.763,0,0,159.281,311.855,1017.61)"><stop offset="0" style="stop-color:rgb(47,42,153);stop-opacity:1"/><stop offset="0.2" style="stop-color:rgb(37,71,194);stop-opacity:1"/><stop offset="0.41" style="stop-color:rgb(27,101,236);stop-opacity:1"/><stop offset="1" style="stop-color:rgb(22,115,255);stop-opacity:1"/></linearGradient>
        <linearGradient id="_Linear14" x1="0" y1="0" x2="1" y2="0" gradientUnits="userSpaceOnUse" gradientTransform="matrix(384.419,0,0,261,80.4048,60.6299)"><stop offset="0" style="stop-color:rgb(47,42,153);stop-opacity:1"/><stop offset="0.15" style="stop-color:rgb(35,77,202);stop-opacity:1"/><stop offset="0.33" style="stop-color:rgb(25,105,241);stop-opacity:1"/><stop offset="1" style="stop-color:rgb(22,115,255);stop-opacity:1"/></linearGradient>
    </defs>
</svg>
