<?xml version="1.0" encoding="UTF-8" standalone="no"?>
<!DOCTYPE svg PUBLIC "-//W3C//DTD SVG 1.1//EN" "http://www.w3.org/Graphics/SVG/1.1/DTD/svg11.dtd">
<svg width="100%" height="100%" viewBox="0 0 1033 262" version="1.1" xmlns="http://www.w3.org/2000/svg" xmlns:xlink="http://www.w3.org/1999/xlink" xml:space="preserve" xmlns:serif="http://www.serif.com/" style="fill-rule:evenodd;clip-rule:evenodd;stroke-linejoin:round;stroke-miterlimit:2;">
    <g transform="matrix(0.392217,0,0,0.326384,-438.624,169.479)">
        <g transform="matrix(506.561,0,0,506.561,1266.31,137.292)">
            <path d="M0.503,-0.192L0.503,-0.213C0.503,-0.307 0.452,-0.361 0.373,-0.378C0.443,-0.398 0.485,-0.446 0.485,-0.526L0.485,-0.538C0.485,-0.655 0.405,-0.725 0.271,-0.725C0.133,-0.725 0.053,-0.642 0.049,-0.519L0.171,-0.519C0.177,-0.585 0.211,-0.62 0.269,-0.62C0.327,-0.62 0.355,-0.588 0.355,-0.53L0.355,-0.518C0.355,-0.452 0.325,-0.419 0.254,-0.419L0.215,-0.419L0.215,-0.324L0.255,-0.324C0.332,-0.324 0.363,-0.291 0.363,-0.215L0.363,-0.196C0.363,-0.129 0.332,-0.094 0.263,-0.094C0.192,-0.094 0.16,-0.136 0.156,-0.206L0.032,-0.206C0.035,-0.068 0.114,0.01 0.268,0.01C0.419,0.01 0.503,-0.068 0.503,-0.192Z" style="fill:rgb(255,255,255);fill-rule:nonzero;"/>
        </g>
        <g transform="matrix(506.561,0,0,506.561,1526.68,137.292)">
            <path d="M0.291,0.01C0.435,0.01 0.523,-0.069 0.523,-0.206L0.523,-0.255C0.523,-0.385 0.439,-0.458 0.33,-0.458C0.254,-0.458 0.207,-0.426 0.179,-0.377L0.179,-0.434C0.181,-0.558 0.226,-0.619 0.297,-0.619C0.351,-0.619 0.375,-0.591 0.383,-0.541L0.512,-0.541C0.499,-0.666 0.42,-0.725 0.296,-0.725C0.149,-0.725 0.043,-0.619 0.043,-0.42L0.043,-0.264C0.043,-0.099 0.118,0.01 0.291,0.01ZM0.29,-0.092C0.226,-0.092 0.185,-0.131 0.185,-0.215L0.185,-0.251C0.185,-0.323 0.226,-0.364 0.288,-0.364C0.353,-0.364 0.389,-0.322 0.389,-0.253L0.389,-0.204C0.389,-0.135 0.351,-0.092 0.29,-0.092Z" style="fill:rgb(255,255,255);fill-rule:nonzero;"/>
        </g>
        <g transform="matrix(506.561,0,0,506.561,1791.11,137.292)">
            <path d="M0.302,0.01C0.461,0.01 0.56,-0.095 0.56,-0.28L0.56,-0.44C0.56,-0.625 0.455,-0.725 0.301,-0.725C0.148,-0.725 0.043,-0.623 0.043,-0.438L0.043,-0.276C0.043,-0.093 0.144,0.01 0.302,0.01ZM0.303,-0.099C0.223,-0.099 0.18,-0.154 0.18,-0.278L0.18,-0.439C0.18,-0.56 0.222,-0.618 0.302,-0.618C0.382,-0.618 0.423,-0.556 0.423,-0.44L0.423,-0.279C0.423,-0.156 0.385,-0.099 0.303,-0.099Z" style="fill:rgb(255,255,255);fill-rule:nonzero;"/>
        </g>
    </g>
    <g transform="matrix(0.4811,0,4.44796e-34,0.4811,265.185,-254.418)">
        <g transform="matrix(144,0,0,144,306.357,1066.5)">
            <path d="M0.396,0.008C0.58,0.008 0.703,-0.102 0.703,-0.308L0.703,-0.349L0.429,-0.349L0.429,-0.302L0.649,-0.302L0.649,-0.298C0.647,-0.141 0.563,-0.038 0.396,-0.038C0.212,-0.038 0.11,-0.164 0.11,-0.354L0.11,-0.362C0.11,-0.548 0.223,-0.679 0.395,-0.679C0.509,-0.679 0.599,-0.629 0.625,-0.511L0.681,-0.511C0.654,-0.66 0.531,-0.724 0.394,-0.724C0.198,-0.724 0.053,-0.57 0.053,-0.361L0.053,-0.353C0.053,-0.143 0.181,0.008 0.396,0.008Z" style="fill:rgb(255,255,255);fill-rule:nonzero;"/>
        </g>
        <g transform="matrix(144,0,0,144,415.221,1066.5)">
            <path d="M0.092,-0L0.148,-0L0.148,-0.326L0.287,-0.326L0.511,-0L0.573,-0L0.346,-0.33C0.453,-0.345 0.531,-0.4 0.531,-0.519L0.531,-0.523C0.531,-0.661 0.427,-0.715 0.288,-0.715L0.092,-0.715L0.092,-0ZM0.148,-0.371L0.148,-0.669L0.291,-0.669C0.402,-0.669 0.475,-0.633 0.475,-0.523L0.475,-0.519C0.475,-0.415 0.406,-0.371 0.291,-0.371L0.148,-0.371Z" style="fill:rgb(255,255,255);fill-rule:nonzero;"/>
        </g>
        <g transform="matrix(144,0,0,144,500.757,1066.5)">
            <path d="M0.403,0.008C0.603,0.008 0.749,-0.153 0.749,-0.355L0.749,-0.363C0.749,-0.564 0.603,-0.723 0.401,-0.723C0.2,-0.723 0.053,-0.564 0.053,-0.361L0.053,-0.353C0.053,-0.153 0.199,0.008 0.403,0.008ZM0.403,-0.039C0.237,-0.039 0.11,-0.172 0.11,-0.354L0.11,-0.362C0.11,-0.542 0.226,-0.677 0.401,-0.677C0.576,-0.677 0.691,-0.538 0.691,-0.364L0.691,-0.356C0.691,-0.173 0.574,-0.039 0.403,-0.039Z" style="fill:rgb(255,255,255);fill-rule:nonzero;"/>
        </g>
        <g transform="matrix(144,0,0,144,616.101,1066.5)">
            <path d="M0.338,0.007C0.516,0.007 0.601,-0.096 0.601,-0.267L0.601,-0.715L0.545,-0.715L0.545,-0.275C0.545,-0.106 0.476,-0.04 0.339,-0.04C0.206,-0.04 0.137,-0.109 0.137,-0.262L0.137,-0.715L0.082,-0.715L0.082,-0.256C0.082,-0.085 0.177,0.007 0.338,0.007Z" style="fill:rgb(255,255,255);fill-rule:nonzero;"/>
        </g>
        <g transform="matrix(144,0,0,144,714.309,1066.5)">
            <path d="M0.092,-0L0.148,-0L0.148,-0.306L0.282,-0.306C0.421,-0.306 0.525,-0.363 0.525,-0.51L0.525,-0.514C0.525,-0.659 0.42,-0.715 0.281,-0.715L0.092,-0.715L0.092,-0ZM0.148,-0.351L0.148,-0.669L0.284,-0.669C0.396,-0.669 0.469,-0.63 0.469,-0.514L0.469,-0.51C0.469,-0.4 0.401,-0.351 0.286,-0.351L0.148,-0.351Z" style="fill:rgb(255,255,255);fill-rule:nonzero;"/>
        </g>
    </g>
    <g transform="matrix(1.04357,0,9.77019e-34,1.05676,89.8856,-937.698)">
        <g transform="matrix(171.824,0,0,171.824,306.357,1066.5)">
            <path d="M0.251,0.01C0.385,0.01 0.46,-0.051 0.46,-0.157C0.46,-0.268 0.387,-0.298 0.264,-0.317C0.181,-0.331 0.156,-0.346 0.156,-0.384C0.156,-0.421 0.187,-0.446 0.239,-0.446C0.295,-0.446 0.322,-0.424 0.332,-0.376L0.444,-0.376C0.431,-0.494 0.346,-0.534 0.239,-0.534C0.141,-0.534 0.043,-0.482 0.043,-0.377C0.043,-0.279 0.094,-0.24 0.232,-0.218C0.309,-0.205 0.344,-0.189 0.344,-0.146C0.344,-0.102 0.315,-0.079 0.25,-0.079C0.179,-0.079 0.152,-0.11 0.146,-0.163L0.032,-0.163C0.037,-0.052 0.116,0.01 0.251,0.01Z" style="fill:rgb(255,255,255);fill-rule:nonzero;"/>
        </g>
        <g transform="matrix(171.824,0,0,171.824,382.819,1066.5)">
            <path d="M0.302,0.01C0.436,0.01 0.525,-0.05 0.542,-0.16L0.425,-0.16C0.416,-0.109 0.378,-0.08 0.305,-0.08C0.215,-0.08 0.165,-0.136 0.161,-0.235L0.544,-0.235L0.544,-0.27C0.544,-0.457 0.427,-0.534 0.297,-0.534C0.148,-0.534 0.037,-0.426 0.037,-0.264L0.037,-0.256C0.037,-0.091 0.148,0.01 0.302,0.01ZM0.163,-0.316C0.175,-0.397 0.224,-0.446 0.297,-0.446C0.372,-0.446 0.418,-0.406 0.424,-0.316L0.163,-0.316Z" style="fill:rgb(255,255,255);fill-rule:nonzero;"/>
        </g>
        <g transform="matrix(171.824,0,0,171.824,473.886,1066.5)">
            <path d="M0.301,0.01C0.443,0.01 0.534,-0.075 0.543,-0.195L0.432,-0.195C0.425,-0.121 0.37,-0.083 0.306,-0.083C0.217,-0.083 0.161,-0.143 0.161,-0.257L0.161,-0.265C0.161,-0.373 0.22,-0.437 0.303,-0.437C0.367,-0.437 0.413,-0.408 0.423,-0.338L0.54,-0.338C0.526,-0.482 0.417,-0.534 0.301,-0.534C0.155,-0.534 0.037,-0.429 0.037,-0.263L0.037,-0.255C0.037,-0.088 0.151,0.01 0.301,0.01Z" style="fill:rgb(255,255,255);fill-rule:nonzero;"/>
        </g>
        <g transform="matrix(171.824,0,0,171.824,564.094,1066.5)">
            <path d="M0.247,0.01C0.332,0.01 0.387,-0.031 0.413,-0.082L0.413,-0L0.534,-0L0.534,-0.523L0.413,-0.523L0.413,-0.212C0.413,-0.129 0.356,-0.087 0.291,-0.087C0.221,-0.087 0.188,-0.123 0.188,-0.202L0.188,-0.523L0.067,-0.523L0.067,-0.188C0.067,-0.049 0.144,0.01 0.247,0.01Z" style="fill:rgb(255,255,255);fill-rule:nonzero;"/>
        </g>
        <g transform="matrix(171.824,0,0,171.824,659.456,1066.5)">
            <path d="M0.072,-0L0.193,-0L0.193,-0.272C0.193,-0.383 0.257,-0.417 0.363,-0.418L0.363,-0.531C0.275,-0.53 0.226,-0.491 0.193,-0.425L0.193,-0.523L0.072,-0.523L0.072,-0Z" style="fill:rgb(255,255,255);fill-rule:nonzero;"/>
        </g>
        <g transform="matrix(171.824,0,0,171.824,719.079,1066.5)">
            <path d="M0.134,-0.609C0.174,-0.609 0.206,-0.639 0.206,-0.678C0.206,-0.718 0.174,-0.748 0.134,-0.748C0.094,-0.748 0.062,-0.718 0.062,-0.678C0.062,-0.639 0.094,-0.609 0.134,-0.609ZM0.075,-0L0.196,-0L0.196,-0.523L0.075,-0.523L0.075,-0Z" style="fill:rgb(255,255,255);fill-rule:nonzero;"/>
        </g>
        <g transform="matrix(171.824,0,0,171.824,757.052,1066.5)">
            <path d="M0.25,0.009C0.287,0.009 0.313,0.003 0.332,-0.004L0.332,-0.1C0.315,-0.093 0.297,-0.09 0.273,-0.09C0.235,-0.09 0.213,-0.111 0.213,-0.157L0.213,-0.432L0.328,-0.432L0.328,-0.523L0.213,-0.523L0.213,-0.638L0.092,-0.638L0.092,-0.523L0.022,-0.523L0.022,-0.432L0.092,-0.432L0.092,-0.146C0.092,-0.047 0.146,0.009 0.25,0.009Z" style="fill:rgb(255,255,255);fill-rule:nonzero;"/>
        </g>
        <g transform="matrix(171.824,0,0,171.824,811.864,1066.5)">
            <path d="M0.13,0.179L0.249,0.179L0.534,-0.523L0.416,-0.523L0.288,-0.186L0.149,-0.523L0.018,-0.523L0.225,-0.053L0.13,0.179Z" style="fill:rgb(255,255,255);fill-rule:nonzero;"/>
        </g>
    </g>
    <g transform="matrix(1,0,0,1,-19.6681,-21.1835)">
        <path d="M403.764,221.568C402.517,242.903 397.673,263.302 389.82,282.184L358.509,282.184C363.933,271.378 368.169,259.896 371.049,247.9C386.972,244.515 398.389,235.465 403.764,221.568ZM331.21,100.082C301.202,68.43 258.466,48.629 211.072,48.629C120.348,48.629 46.692,121.185 46.692,210.553C46.692,219.981 47.512,229.222 49.087,238.221L21.714,238.221C20.366,229.172 19.668,219.926 19.668,210.521C19.668,106.023 105.794,21.184 211.878,21.184C277.267,21.184 335.075,53.418 369.805,102.626C362.34,100.264 353.973,99.062 344.897,99.062C340.131,99.062 335.56,99.404 331.21,100.082Z" style="fill:rgb(255,255,255);"/>
    </g>
</svg>
