<svg width="64" height="64" viewBox="0 0 64 64" fill="none" xmlns="http://www.w3.org/2000/svg">
  <defs>
    <linearGradient id="gradAI" x1="0%" y1="0%" x2="100%" y2="100%">
      <stop offset="0%" stop-color="#2F2A99"/>
      <stop offset="100%" stop-color="#1673FF"/>
    </linearGradient>
  </defs>
  <!-- AI Robot head outline -->
  <rect x="18" y="20" width="28" height="24" rx="3" stroke="url(#gradAI)" stroke-width="2" fill="none"/>

  <!-- Antenna -->
  <line x1="32" y1="14" x2="32" y2="20" stroke="url(#gradAI)" stroke-width="2" stroke-linecap="round"/>
  <circle cx="32" cy="12" r="2" fill="url(#gradAI)"/>

  <!-- Eyes (AI vision) -->
  <circle cx="26" cy="30" r="3" fill="url(#gradAI)" opacity="0.6"/>
  <circle cx="38" cy="30" r="3" fill="url(#gradAI)" opacity="0.6"/>

  <!-- Neural network pattern inside -->
  <line x1="26" y1="36" x2="28" y2="38" stroke="url(#gradAI)" stroke-width="1" opacity="0.5"/>
  <line x1="32" y1="36" x2="32" y2="38" stroke="url(#gradAI)" stroke-width="1" opacity="0.5"/>
  <line x1="38" y1="36" x2="36" y2="38" stroke="url(#gradAI)" stroke-width="1" opacity="0.5"/>

  <!-- Shield protection layer -->
  <path d="M32 46 L20 50 L20 54 C20 58 24 60 32 62 C40 60 44 58 44 54 L44 50 Z"
        stroke="url(#gradAI)" stroke-width="2" fill="url(#gradAI)" opacity="0.2"/>

  <!-- Attack vectors being blocked -->
  <path d="M12 32 L16 32" stroke="url(#gradAI)" stroke-width="1.5" opacity="0.4" stroke-linecap="round" stroke-dasharray="2 2"/>
  <path d="M48 32 L52 32" stroke="url(#gradAI)" stroke-width="1.5" opacity="0.4" stroke-linecap="round" stroke-dasharray="2 2"/>

  <!-- Security indicators -->
  <circle cx="23" cy="25" r="1" fill="url(#gradAI)"/>
  <circle cx="41" cy="25" r="1" fill="url(#gradAI)"/>
</svg>
