<svg width="64" height="64" viewBox="0 0 64 64" fill="none" xmlns="http://www.w3.org/2000/svg">
  <defs>
    <linearGradient id="gradAuto" x1="0%" y1="0%" x2="100%" y2="100%">
      <stop offset="0%" stop-color="#2F2A99"/>
      <stop offset="100%" stop-color="#1673FF"/>
    </linearGradient>
  </defs>
  <!-- Main gear -->
  <circle cx="32" cy="32" r="10" fill="url(#gradAuto)" opacity="0.3"/>
  <circle cx="32" cy="32" r="6" fill="url(#gradAuto)"/>

  <!-- Gear teeth -->
  <rect x="30" y="14" width="4" height="6" fill="url(#gradAuto)"/>
  <rect x="30" y="44" width="4" height="6" fill="url(#gradAuto)"/>
  <rect x="14" y="30" width="6" height="4" fill="url(#gradAuto)"/>
  <rect x="44" y="30" width="6" height="4" fill="url(#gradAuto)"/>

  <rect x="21" y="18" width="4" height="5" fill="url(#gradAuto)" transform="rotate(-45 23 20.5)"/>
  <rect x="39" y="18" width="4" height="5" fill="url(#gradAuto)" transform="rotate(45 41 20.5)"/>
  <rect x="21" y="41" width="4" height="5" fill="url(#gradAuto)" transform="rotate(45 23 43.5)"/>
  <rect x="39" y="41" width="4" height="5" fill="url(#gradAuto)" transform="rotate(-45 41 43.5)"/>

  <!-- AI orbit rings -->
  <circle cx="32" cy="32" r="18" stroke="url(#gradAuto)" stroke-width="1.5" fill="none" opacity="0.4" stroke-dasharray="4 4"/>

  <!-- Orbiting AI nodes -->
  <circle cx="50" cy="32" r="2" fill="url(#gradAuto)" opacity="0.8">
    <animateTransform attributeName="transform" type="rotate" from="0 32 32" to="360 32 32" dur="3s" repeatCount="indefinite"/>
  </circle>
  <circle cx="14" cy="32" r="2" fill="url(#gradAuto)" opacity="0.8">
    <animateTransform attributeName="transform" type="rotate" from="180 32 32" to="540 32 32" dur="3s" repeatCount="indefinite"/>
  </circle>
</svg>
