<svg width="48" height="48" viewBox="0 0 48 48" fill="none" xmlns="http://www.w3.org/2000/svg">
  <defs>
    <linearGradient id="gradCustomers" x1="0%" y1="0%" x2="100%" y2="100%">
      <stop offset="0%" stop-color="#2F2A99"/>
      <stop offset="100%" stop-color="#1673FF"/>
    </linearGradient>
  </defs>
  <!-- Multiple user figures -->
  <!-- Center user -->
  <circle cx="24" cy="16" r="4" fill="url(#gradCustomers)"/>
  <path d="M16 32 C16 28 19 25 24 25 C29 25 32 28 32 32 L32 36 L16 36 Z" fill="url(#gradCustomers)"/>

  <!-- Left user -->
  <circle cx="12" cy="18" r="3.5" fill="url(#gradCustomers)" opacity="0.7"/>
  <path d="M6 34 C6 30.5 8.5 28 12 28 C15.5 28 18 30.5 18 34 L18 37 L6 37 Z" fill="url(#gradCustomers)" opacity="0.7"/>

  <!-- Right user -->
  <circle cx="36" cy="18" r="3.5" fill="url(#gradCustomers)" opacity="0.7"/>
  <path d="M30 34 C30 30.5 32.5 28 36 28 C39.5 28 42 30.5 42 34 L42 37 L30 37 Z" fill="url(#gradCustomers)" opacity="0.7"/>

  <!-- Checkmark indicating satisfaction -->
  <circle cx="38" cy="12" r="5" fill="url(#gradCustomers)" opacity="0.9"/>
  <path d="M36 12 L37.5 13.5 L40 11" stroke="white" stroke-width="1.5" fill="none" stroke-linecap="round" stroke-linejoin="round"/>
</svg>
