<svg width="64" height="64" viewBox="0 0 64 64" fill="none" xmlns="http://www.w3.org/2000/svg">
  <defs>
    <linearGradient id="gradLifecycle" x1="0%" y1="0%" x2="100%" y2="100%">
      <stop offset="0%" stop-color="#2F2A99"/>
      <stop offset="100%" stop-color="#1673FF"/>
    </linearGradient>
  </defs>
  <!-- Circular lifecycle arrows -->
  <path d="M32 12 A 20 20 0 0 1 52 32" stroke="url(#gradLifecycle)" stroke-width="3" fill="none" stroke-linecap="round"/>
  <path d="M52 32 A 20 20 0 0 1 32 52" stroke="url(#gradLifecycle)" stroke-width="3" fill="none" stroke-linecap="round" opacity="0.7"/>
  <path d="M32 52 A 20 20 0 0 1 12 32" stroke="url(#gradLifecycle)" stroke-width="3" fill="none" stroke-linecap="round" opacity="0.5"/>
  <path d="M12 32 A 20 20 0 0 1 32 12" stroke="url(#gradLifecycle)" stroke-width="3" fill="none" stroke-linecap="round" opacity="0.3"/>

  <!-- Arrow heads -->
  <path d="M48 12 L52 32 L54 26" fill="url(#gradLifecycle)"/>
  <path d="M52 48 L32 52 L38 54" fill="url(#gradLifecycle)" opacity="0.7"/>
  <path d="M16 52 L12 32 L10 38" fill="url(#gradLifecycle)" opacity="0.5"/>
  <path d="M12 16 L32 12 L26 10" fill="url(#gradLifecycle)" opacity="0.3"/>

  <!-- SDLC phase indicators -->
  <circle cx="32" cy="12" r="3" fill="url(#gradLifecycle)"/>
  <circle cx="52" cy="32" r="3" fill="url(#gradLifecycle)" opacity="0.7"/>
  <circle cx="32" cy="52" r="3" fill="url(#gradLifecycle)" opacity="0.5"/>
  <circle cx="12" cy="32" r="3" fill="url(#gradLifecycle)" opacity="0.3"/>

  <!-- Center security shield -->
  <circle cx="32" cy="32" r="6" stroke="url(#gradLifecycle)" stroke-width="2" fill="none"/>
  <path d="M32 28 L32 36 M28 32 L36 32" stroke="url(#gradLifecycle)" stroke-width="1.5" opacity="0.6"/>
</svg>
