<svg width="250" height="82" viewBox="0 0 250 82" fill="none" xmlns="http://www.w3.org/2000/svg">
<path d="M132.866 14.6459C130.515 13.9942 128.086 13.6647 125.646 13.6665C123.217 13.6685 120.8 13.9979 118.459 14.6459C118.264 13.4989 117.808 12.412 117.127 11.4684C122.706 9.85053 128.631 9.85053 134.21 11.4684C133.516 12.4057 133.055 13.495 132.866 14.6459Z" fill="#6B0AEA"/>
<path d="M106.444 21.5477C102.948 24.997 100.446 29.3246 99.2007 34.0754C98.1175 33.657 96.9506 33.5009 95.7954 33.6199C97.1926 27.9741 100.162 22.8403 104.36 18.8143C104.829 19.877 105.544 20.8136 106.444 21.5477Z" fill="#6B0AEA"/>
<path d="M95.784 48.3456C96.9402 48.4787 98.1115 48.3342 99.2007 47.9243C100.456 52.6611 102.957 56.9752 106.444 60.4179C105.544 61.1519 104.829 62.0885 104.36 63.1512C100.158 59.1267 97.1844 53.9928 95.784 48.3456Z" fill="#6B0AEA"/>
<path d="M152.091 34.0755C153.18 33.6655 154.351 33.5211 155.507 33.6541C154.107 28.007 151.133 22.873 146.932 18.8485C146.462 19.9112 145.748 20.8478 144.847 21.5819C148.335 25.0245 150.836 29.3386 152.091 34.0755Z" fill="#6B0AEA"/>
<path d="M152.091 47.9243C150.846 52.6751 148.344 57.0027 144.847 60.452C145.748 61.1861 146.462 62.1227 146.932 63.1854C151.129 59.1594 154.099 54.0256 155.496 48.3798C154.341 48.4988 153.174 48.3427 152.091 47.9243Z" fill="#6B0AEA"/>
<path d="M118.425 67.3538C120.777 68.0055 123.206 68.335 125.646 68.3332C128.074 68.3312 130.491 68.0018 132.832 67.3538C133.028 68.5008 133.484 69.5878 134.165 70.5313C128.585 72.1492 122.661 72.1492 117.081 70.5313C117.775 69.594 118.236 68.5047 118.425 67.3538Z" fill="#6B0AEA"/>
<path fill-rule="evenodd" clip-rule="evenodd" d="M151.84 36.7386C152.683 36.1754 153.674 35.8749 154.687 35.8749C156.046 35.8779 157.347 36.4188 158.308 37.3793C159.268 38.3397 159.809 39.6416 159.812 40.9999C159.812 42.0135 159.512 43.0044 158.949 43.8472C158.385 44.69 157.585 45.3468 156.649 45.7347C155.712 46.1226 154.682 46.2241 153.687 46.0264C152.693 45.8286 151.78 45.3405 151.063 44.6238C150.347 43.907 149.859 42.9939 149.661 41.9997C149.463 41.0055 149.565 39.9751 149.952 39.0386C150.34 38.1021 150.997 37.3017 151.84 36.7386ZM153.738 42.4203C154.019 42.608 154.349 42.7082 154.687 42.7082C155.14 42.7082 155.575 42.5282 155.895 42.2078C156.216 41.8875 156.396 41.4529 156.396 40.9999C156.396 40.662 156.295 40.3317 156.108 40.0508C155.92 39.7698 155.653 39.5509 155.341 39.4216C155.029 39.2923 154.685 39.2584 154.354 39.3244C154.023 39.3903 153.718 39.553 153.479 39.7919C153.24 40.0308 153.078 40.3352 153.012 40.6666C152.946 40.998 152.98 41.3415 153.109 41.6536C153.238 41.9658 153.457 42.2326 153.738 42.4203Z" fill="#6B0AEA"/>
<path fill-rule="evenodd" clip-rule="evenodd" d="M137.604 20.2835C138.482 20.7908 139.491 21.0261 140.503 20.9598C141.515 20.8934 142.484 20.5284 143.289 19.9109C144.093 19.2934 144.696 18.4511 145.021 17.4908C145.347 16.5304 145.38 15.495 145.117 14.5157C144.854 13.5364 144.306 12.6572 143.543 11.9893C142.78 11.3214 141.836 10.8949 140.83 10.7638C139.825 10.6326 138.803 10.8027 137.894 11.2526C136.985 11.7024 136.23 12.4117 135.725 13.2907C135.051 14.4682 134.871 15.8644 135.223 17.1746C135.575 18.4847 136.431 19.6023 137.604 20.2835ZM138.743 14.9991C138.905 14.699 139.153 14.4542 139.456 14.2964C139.758 14.1385 140.101 14.0748 140.439 14.1133C140.778 14.1519 141.098 14.2911 141.357 14.5128C141.616 14.7346 141.803 15.0289 141.893 15.3577C141.984 15.6866 141.974 16.035 141.864 16.3581C141.755 16.6812 141.552 16.9642 141.28 17.1706C141.009 17.377 140.682 17.4975 140.341 17.5164C140.001 17.5353 139.662 17.4519 139.369 17.2769C138.98 17.0625 138.69 16.7037 138.562 16.2777C138.434 15.8517 138.479 15.3926 138.686 14.9991H138.743Z" fill="#6B0AEA"/>
<path fill-rule="evenodd" clip-rule="evenodd" d="M115.718 18.1092C115.271 19.0189 114.564 19.7755 113.687 20.2834C113.105 20.6208 112.462 20.8401 111.794 20.9288C111.127 21.0175 110.449 20.9739 109.798 20.8005C109.148 20.627 108.538 20.3271 108.004 19.918C107.469 19.5088 107.02 18.9983 106.683 18.4157C106.175 17.5384 105.939 16.5303 106.004 15.5189C106.07 14.5074 106.433 13.538 107.049 12.7332C107.666 11.9284 108.506 11.3243 109.466 10.9974C110.425 10.6705 111.46 10.6354 112.439 10.8966C113.419 11.1577 114.299 11.7034 114.968 12.4646C115.637 13.2258 116.066 14.1684 116.199 15.1731C116.333 16.1778 116.165 17.1996 115.718 18.1092ZM111.232 14.1207C110.894 14.1075 110.559 14.1952 110.271 14.3726C110.08 14.4883 109.914 14.6405 109.782 14.8206C109.65 15.0006 109.554 15.2049 109.501 15.4218C109.449 15.6387 109.439 15.8639 109.473 16.0845C109.508 16.3051 109.585 16.5167 109.701 16.7073C109.876 16.9976 110.132 17.2296 110.439 17.3737C110.745 17.5178 111.088 17.5675 111.422 17.5167C111.757 17.4658 112.069 17.3165 112.319 17.0879C112.569 16.8592 112.745 16.5615 112.825 16.2325C112.906 15.9035 112.886 15.5581 112.77 15.2401C112.653 14.9221 112.445 14.6459 112.171 14.4466C111.897 14.2473 111.571 14.1339 111.232 14.1207Z" fill="#6B0AEA"/>
<path fill-rule="evenodd" clip-rule="evenodd" d="M101.729 40.9999C101.729 39.9862 101.428 38.9954 100.865 38.1526C100.302 37.3098 99.5017 36.6529 98.5653 36.265C97.6288 35.8771 96.5983 35.7756 95.6042 35.9733C94.61 36.1711 93.6968 36.6592 92.9801 37.3759C92.2633 38.0927 91.7752 39.0059 91.5775 40C91.3797 40.9942 91.4812 42.0246 91.8691 42.9611C92.257 43.8976 92.9139 44.698 93.7567 45.2611C94.5995 45.8243 95.5904 46.1249 96.604 46.1249C97.9623 46.1219 99.2641 45.5809 100.225 44.6205C101.185 43.66 101.726 42.3582 101.729 40.9999ZM94.8957 40.9999C94.8957 40.662 94.9959 40.3317 95.1836 40.0508C95.3713 39.7698 95.6381 39.5509 95.9503 39.4216C96.2624 39.2923 96.6059 39.2584 96.9373 39.3244C97.2687 39.3903 97.5731 39.553 97.812 39.7919C98.0509 40.0308 98.2136 40.3352 98.2795 40.6666C98.3454 40.998 98.3116 41.3415 98.1823 41.6536C98.053 41.9658 97.834 42.2326 97.5531 42.4203C97.2722 42.608 96.9419 42.7082 96.604 42.7082C96.1509 42.7082 95.7164 42.5282 95.396 42.2078C95.0757 41.8875 94.8957 41.4529 94.8957 40.9999Z" fill="#6B0AEA"/>
<path fill-rule="evenodd" clip-rule="evenodd" d="M110.789 61.04C111.801 60.9736 112.809 61.209 113.687 61.7162C114.861 62.3974 115.717 63.515 116.069 64.8252C116.421 66.1353 116.24 67.5315 115.567 68.709C115.061 69.588 114.306 70.2973 113.397 70.7472C112.488 71.197 111.467 71.3671 110.461 71.236C109.456 71.1048 108.511 70.6783 107.748 70.0104C106.985 69.3426 106.438 68.4633 106.174 67.484C105.911 66.5047 105.945 65.4694 106.27 64.509C106.596 63.5486 107.199 62.7063 108.003 62.0888C108.807 61.4713 109.777 61.1063 110.789 61.04ZM111.893 67.7034C112.195 67.5455 112.443 67.3008 112.605 67.0007C112.817 66.614 112.871 66.16 112.754 65.7349C112.637 65.3097 112.359 64.9468 111.979 64.7229C111.686 64.5478 111.348 64.4644 111.007 64.4833C110.667 64.5023 110.34 64.6227 110.068 64.8291C109.797 65.0356 109.593 65.3186 109.484 65.6416C109.375 65.9647 109.365 66.3131 109.455 66.642C109.545 66.9709 109.732 67.2651 109.991 67.4869C110.251 67.7087 110.57 67.8478 110.909 67.8864C111.248 67.925 111.591 67.8612 111.893 67.7034Z" fill="#6B0AEA"/>
<path fill-rule="evenodd" clip-rule="evenodd" d="M137.604 61.7163C136.727 62.2242 136.02 62.9809 135.573 63.8905C135.126 64.8001 134.958 65.8219 135.092 66.8266C135.226 67.8313 135.654 68.7739 136.323 69.5351C136.993 70.2963 137.872 70.842 138.852 71.1032C139.831 71.3643 140.866 71.3292 141.825 71.0023C142.785 70.6754 143.626 70.0714 144.242 69.2665C144.858 68.4617 145.222 67.4923 145.287 66.4809C145.352 65.4694 145.116 64.4613 144.608 63.5841C144.271 63.0014 143.822 62.491 143.288 62.0818C142.753 61.6726 142.143 61.3727 141.493 61.1993C140.842 61.0258 140.164 60.9822 139.497 61.0709C138.83 61.1596 138.186 61.3789 137.604 61.7163ZM141.021 67.6271C140.728 67.7958 140.392 67.8738 140.055 67.8515C139.718 67.8292 139.395 67.7074 139.127 67.5016C138.859 67.2958 138.658 67.0152 138.55 66.6953C138.441 66.3754 138.43 66.0305 138.518 65.7042C138.605 65.378 138.787 65.085 139.042 64.8623C139.296 64.6396 139.61 64.4973 139.945 64.4532C140.28 64.4091 140.62 64.4653 140.923 64.6147C141.226 64.7641 141.478 64.9999 141.647 65.2924C141.761 65.4864 141.835 65.7011 141.865 65.924C141.895 66.1469 141.881 66.3736 141.822 66.5908C141.764 66.8081 141.663 67.0116 141.525 67.1895C141.388 67.3674 141.216 67.5161 141.021 67.6271Z" fill="#6B0AEA"/>
<path d="M125.646 45.5554C128.162 45.5554 130.201 43.5158 130.201 40.9999C130.201 38.4839 128.162 36.4443 125.646 36.4443C123.13 36.4443 121.09 38.4839 121.09 40.9999C121.09 43.5158 123.13 45.5554 125.646 45.5554Z" fill="#6B0AEA"/>
<path fill-rule="evenodd" clip-rule="evenodd" d="M116.251 29.5619C118.898 27.3859 122.219 26.1957 125.646 26.1943C126.95 26.1992 128.248 26.3753 129.506 26.7182L134.905 22.6752L136.886 23.8141L136.089 30.4993C138.52 32.9153 140.037 36.0996 140.382 39.5092C140.727 42.9188 139.879 46.3424 137.981 49.1964C136.084 52.0503 133.256 54.1577 129.978 55.1592C126.701 56.1606 123.178 55.9942 120.009 54.6881C116.841 53.3821 114.224 51.0173 112.604 47.9972C110.984 44.9771 110.463 41.4887 111.128 38.1268C111.793 34.765 113.603 31.7379 116.251 29.5619ZM134.168 46.6945C135.294 45.0089 135.896 43.0272 135.896 40.9999C135.896 38.2814 134.816 35.6743 132.893 33.7521C130.971 31.8298 128.364 30.7499 125.646 30.7499C123.618 30.7499 121.637 31.3511 119.951 32.4773C118.265 33.6036 116.952 35.2045 116.176 37.0774C115.4 38.9503 115.197 41.0113 115.593 42.9996C115.988 44.9879 116.964 46.8143 118.398 48.2477C119.831 49.6812 121.658 50.6575 123.646 51.053C125.634 51.4485 127.695 51.2455 129.568 50.4697C131.441 49.6939 133.042 48.3801 134.168 46.6945Z" fill="#6B0AEA"/>
</svg>
