<svg width="64" height="64" viewBox="0 0 64 64" fill="none" xmlns="http://www.w3.org/2000/svg">
  <defs>
    <linearGradient id="gradExperts" x1="0%" y1="0%" x2="100%" y2="100%">
      <stop offset="0%" stop-color="#2F2A99"/>
      <stop offset="100%" stop-color="#1673FF"/>
    </linearGradient>
  </defs>
  <!-- Senior professional icon -->
  <circle cx="32" cy="22" r="8" fill="url(#gradExperts)"/>
  <path d="M18 46 C18 38 24 32 32 32 C40 32 46 38 46 46 L46 54 L18 54 Z" fill="url(#gradExperts)"/>

  <!-- Experience badge/star -->
  <circle cx="46" cy="18" r="10" fill="url(#gradExperts)" opacity="0.2"/>
  <path d="M46 12 L47.5 16 L52 16 L48.5 19 L50 23 L46 20 L42 23 L43.5 19 L40 16 L44.5 16 Z" fill="url(#gradExperts)"/>

  <!-- Expertise indicators -->
  <circle cx="20" cy="36" r="2" fill="url(#gradExperts)" opacity="0.6"/>
  <circle cx="26" cy="34" r="2" fill="url(#gradExperts)" opacity="0.6"/>
  <circle cx="32" cy="36" r="2" fill="url(#gradExperts)" opacity="0.6"/>
  <circle cx="38" cy="34" r="2" fill="url(#gradExperts)" opacity="0.6"/>
  <circle cx="44" cy="36" r="2" fill="url(#gradExperts)" opacity="0.6"/>
</svg>
